<?xml version="1.0" standalone="no"?>
<!DOCTYPE svg PUBLIC "-//W3C//DTD SVG 20010904//EN"
 "http://www.w3.org/TR/2001/REC-SVG-20010904/DTD/svg10.dtd">
<svg version="1.0" xmlns="http://www.w3.org/2000/svg"
 width="100.000000pt" height="100.000000pt" viewBox="0 0 100.000000 100.000000"
 preserveAspectRatio="xMidYMid meet">

<g transform="translate(0.000000,100.000000) scale(0.100000,-0.100000)"
fill="#000000" stroke="none">
<path d="M489 688 c-1 -7 -1 -21 0 -30 3 -22 -12 -23 -29 -3 -7 8 -16 15 -21
15 -18 0 -8 -27 21 -55 34 -32 37 -47 14 -66 -23 -19 -47 0 -60 46 -14 50 -34
58 -34 14 0 -26 -3 -30 -12 -21 -14 14 -48 16 -48 2 0 -5 9 -15 20 -22 25 -16
26 -28 1 -28 -11 0 -23 -5 -26 -10 -10 -16 20 -22 58 -12 40 11 67 0 67 -27 0
-26 -25 -33 -72 -20 -51 13 -76 -3 -34 -22 l27 -13 -22 -17 c-26 -20 -18 -44
11 -29 27 14 30 13 30 -16 0 -38 23 -25 35 20 13 44 39 64 61 46 21 -18 17
-33 -16 -65 -16 -16 -30 -35 -30 -42 0 -18 29 -16 36 2 9 22 27 18 21 -4 -2
-10 -1 -24 3 -31 12 -19 30 -2 30 27 0 26 0 26 20 8 35 -32 45 -3 10 30 -33
32 -39 69 -13 79 22 9 39 -10 50 -54 6 -20 16 -36 27 -38 14 -3 16 1 10 22 -7
28 -2 31 26 16 29 -15 37 9 11 29 l-22 17 27 13 c43 19 16 35 -35 21 -32 -8
-46 -8 -57 1 -35 29 0 62 50 48 41 -12 66 -11 66 1 0 6 -12 15 -26 20 l-26 10
24 19 c29 24 17 38 -18 23 -24 -12 -25 -11 -22 15 5 42 -24 36 -35 -7 -10 -43
-30 -65 -51 -57 -26 10 -18 51 14 82 20 19 27 32 20 39 -6 6 -16 3 -29 -8 -19
-17 -20 -17 -23 10 -3 28 -27 46 -29 22z m38 -184 c3 -8 -2 -23 -11 -32 -15
-15 -17 -15 -32 0 -21 21 -11 48 16 48 11 0 23 -7 27 -16z"/>
</g>
</svg>
